<?xml version="1.0" encoding="UTF-8"?>
<svg width="752pt" height="752pt" version="1.1" viewBox="0 0 752 752" xmlns="http://www.w3.org/2000/svg">
 <defs>
  <clipPath id="a">
   <path d="m139.21 139.21h473.58v414.79h-473.58z"/>
  </clipPath>
 </defs>
 <g clip-path="url(#a)">
  <path d="m583.19 198.41h-414.38c-16.34 0-29.598-13.262-29.598-29.598 0-16.34 13.262-29.598 29.598-29.598h414.38c16.367 0 29.598 13.262 29.598 29.598 0 16.34-13.23 29.598-29.598 29.598zm0 118.39h-414.38c-16.34 0-29.598-13.262-29.598-29.598 0-16.34 13.262-29.598 29.598-29.598h414.38c16.367 0 29.598 13.262 29.598 29.598 0 16.34-13.23 29.598-29.598 29.598zm0 118.39h-414.38c-16.34 0-29.598-13.23-29.598-29.598 0-16.34 13.262-29.598 29.598-29.598h414.38c16.367 0 29.598 13.262 29.598 29.598 0 16.367-13.23 29.598-29.598 29.598zm-118.39 118.39h-177.59c-16.34 0-29.598-13.23-29.598-29.598 0-16.367 13.262-29.598 29.598-29.598h177.59c16.367 0 29.598 13.23 29.598 29.598 0 16.367-13.23 29.598-29.598 29.598z"/>
 </g>
</svg>
